Coordinates
version=1
nRows=13
nColumns=38
inDegrees=no

Units are S.I. units (second, meters, Newtons, ...)
If the header above contains a line with 'inDegrees', this indicates whether rotational values are in degrees (yes) or radians (no).

endheader
time	pelvis_tilt	pelvis_list	pelvis_rotation	pelvis_tx	pelvis_ty	pelvis_tz	hip_flexion_r	hip_adduction_r	hip_rotation_r	knee_angle_r	ankle_angle_r	subtalar_angle_r	mtp_angle_r	hip_flexion_l	hip_adduction_l	hip_rotation_l	knee_angle_l	ankle_angle_l	subtalar_angle_l	mtp_angle_l	lumbar_extension	lumbar_bending	lumbar_rotation	arm_flex_r	arm_add_r	arm_rot_r	elbow_flex_r	pro_sup_r	wrist_flex_r	wrist_dev_r	arm_flex_l	arm_add_l	arm_rot_l	elbow_flex_l	pro_sup_l	wrist_flex_l	wrist_dev_l
2.6875	-0.140026	-0.014967	-3.08324	-0.3793	0.957616	0.0621007	0.305023	-0.0210682	-0.114353	0.266805	-0.0393539	0	0	-0.293609	0.0368478	-0.0230645	0.31075	0.355868	0	0	-0.34629	0.0837588	-0.315569	0.208309	-0.303049	1.5708	0.330793	0.136528	0	0	0.497486	-0.5924	0.958519	0.770919	0.5278	0	0
2.69749	-0.142376	-0.0132792	-3.07565	-0.380932	0.957308	0.0612716	0.302765	-0.0211993	-0.124463	0.287437	-0.045192	0	0	-0.29711	0.0289321	-0.0200576	0.328358	0.353677	0	0	-0.345065	0.0886904	-0.318782	0.214581	-0.298754	1.5708	0.331262	0.140797	0	0	0.487818	-0.583043	0.974585	0.759401	0.525231	0	0
2.70748	-0.144745	-0.011537	-3.06805	-0.382662	0.9571	0.0603677	0.299958	-0.021152	-0.134471	0.307903	-0.0490166	0	0	-0.299274	0.0205117	-0.017785	0.348176	0.348801	0	0	-0.343709	0.0935495	-0.321405	0.221043	-0.294355	1.5708	0.331976	0.145076	0	0	0.478123	-0.572767	0.993943	0.746245	0.519175	0	0
2.71747	-0.147076	-0.00974921	-3.06067	-0.384469	0.956988	0.0593756	0.29664	-0.0207894	-0.144023	0.327947	-0.0504087	0	0	-0.299816	0.0116039	-0.0165239	0.370489	0.340852	0	0	-0.342225	0.0982481	-0.323235	0.227735	-0.289882	1.5708	0.332952	0.149385	0	0	0.468406	-0.561585	1.0166	0.731569	0.509146	0	0
2.72747	-0.149328	-0.00792233	-3.05368	-0.386329	0.956967	0.0582845	0.292814	-0.0199914	-0.152836	0.347312	-0.0491271	0	0	-0.298477	0.00221663	-0.0165056	0.395558	0.329446	0	0	-0.34064	0.10271	-0.324106	0.234711	-0.285361	1.5708	0.334209	0.153756	0	0	0.458668	-0.549528	1.04255	0.715499	0.494736	0	0
2.73746	-0.151483	-0.00605893	-3.04723	-0.388214	0.957035	0.0570863	0.28844	-0.0186574	-0.160704	0.365727	-0.0451334	0	0	-0.295035	-0.00765007	-0.0178947	0.423592	0.314236	0	0	-0.339011	0.106879	-0.323896	0.242044	-0.28081	1.5708	0.335758	0.158232	0	0	0.448902	-0.536649	1.07168	0.698176	0.475692	0	0
2.74745	-0.153544	-0.00415805	-3.04141	-0.390094	0.957188	0.0557768	0.283444	-0.0167117	-0.167504	0.382902	-0.0385866	0	0	-0.289318	-0.0179982	-0.0207658	0.454732	0.294959	0	0	-0.33742	0.110718	-0.322536	0.249824	-0.276239	1.5708	0.337604	0.162857	0	0	0.439074	-0.523023	1.10381	0.679767	0.451975	0	0
2.75744	-0.155528	-0.00221748	-3.0363	-0.391938	0.957427	0.0543567	0.277728	-0.0141111	-0.173202	0.398549	-0.0298157	0	0	-0.281209	-0.0288223	-0.0250822	0.489031	0.271485	0	0	-0.335961	0.114211	-0.320009	0.25815	-0.271658	1.5708	0.339753	0.167691	0	0	0.429145	-0.508746	1.13867	0.660452	0.423704	0	0
2.76743	-0.157467	-0.000240003	-3.03191	-0.393713	0.957749	0.0528323	0.271186	-0.0108496	-0.17784	0.412404	-0.0192704	0	0	-0.270659	-0.040092	-0.0306803	0.526441	0.243869	0	0	-0.334738	0.117359	-0.316367	0.267132	-0.267071	1.5708	0.342204	0.172797	0	0	0.419034	-0.493937	1.17583	0.640444	0.39127	0	0
2.77742	-0.159399	0.00176611	-3.02821	-0.395388	0.958153	0.0512154	0.263725	-0.00695879	-0.181519	0.424254	-0.00744971	0	0	-0.257687	-0.0517408	-0.0372739	0.566805	0.212386	0	0	-0.333857	0.120174	-0.311708	0.276881	-0.262486	1.5708	0.344961	0.178249	0	0	0.408659	-0.478722	1.21477	0.619965	0.355239	0	0
2.78741	-0.16137	0.00378363	-3.02515	-0.396934	0.958637	0.0495235	0.255277	-0.00250723	-0.184382	0.43397	0.00516243	0	0	-0.242382	-0.0636592	-0.0444786	0.609855	0.177546	0	0	-0.333418	0.122676	-0.306173	0.287506	-0.257915	1.5708	0.348026	0.184126	0	0	0.397925	-0.463246	1.2549	0.599253	0.316386	0	0
2.7974	-0.163425	0.0057808	-3.02265	-0.398326	0.959197	0.0477786	0.245808	0.00239919	-0.186595	0.441519	0.0181397	0	0	-0.224907	-0.0756896	-0.0518521	0.655202	0.140068	0	0	-0.333508	0.124883	-0.299944	0.299101	-0.253366	1.5708	0.351395	0.190501	0	0	0.386731	-0.447664	1.29553	0.578567	0.275653	0	0
2.80739	-0.165602	0.00771024	-3.02061	-0.399547	0.959829	0.0460058	0.235328	0.00762502	-0.188311	0.44697	0.03113	0	0	-0.205486	-0.0876323	-0.0589517	0.702354	0.100835	0	0	-0.334195	0.126804	-0.293224	0.311742	-0.248852	1.5708	0.355061	0.197432	0	0	0.37497	-0.432143	1.3359	0.558185	0.234135	0	0
